<?xml version="1.0" encoding="UTF-8" standalone="no"?>
<!-- Created with Inkscape (http://www.inkscape.org/) -->

<svg
   xmlns:dc="http://purl.org/dc/elements/1.1/"
   xmlns:cc="http://creativecommons.org/ns#"
   xmlns:rdf="http://www.w3.org/1999/02/22-rdf-syntax-ns#"
   xmlns:svg="http://www.w3.org/2000/svg"
   xmlns="http://www.w3.org/2000/svg"
   xmlns:sodipodi="http://sodipodi.sourceforge.net/DTD/sodipodi-0.dtd"
   xmlns:inkscape="http://www.inkscape.org/namespaces/inkscape"
   width="210mm"
   height="297mm"
   viewBox="0 0 210 297"
   version="1.1"
   id="svg8"
   inkscape:version="0.92.4 5da689c313, 2019-01-14"
   sodipodi:docname="Klausur_11_1_grafiken.svg">
  <defs
     id="defs2" />
  <sodipodi:namedview
     id="base"
     pagecolor="#ffffff"
     bordercolor="#666666"
     borderopacity="1.0"
     inkscape:pageopacity="0.0"
     inkscape:pageshadow="2"
     inkscape:zoom="1.3798601"
     inkscape:cx="394.98615"
     inkscape:cy="446.41333"
     inkscape:document-units="mm"
     inkscape:current-layer="layer1"
     showgrid="false"
     inkscape:window-width="1920"
     inkscape:window-height="1054"
     inkscape:window-x="0"
     inkscape:window-y="26"
     inkscape:window-maximized="0" />
  <metadata
     id="metadata5">
    <rdf:RDF>
      <cc:Work
         rdf:about="">
        <dc:format>image/svg+xml</dc:format>
        <dc:type
           rdf:resource="http://purl.org/dc/dcmitype/StillImage" />
        <dc:title></dc:title>
      </cc:Work>
    </rdf:RDF>
  </metadata>
  <g
     inkscape:label="Layer 1"
     inkscape:groupmode="layer"
     id="layer1">
    <text
       xml:space="preserve"
       style="font-style:normal;font-variant:normal;font-weight:normal;font-stretch:normal;font-size:3.84951997px;line-height:6.41586637px;font-family:'Nimbus Sans';-inkscape-font-specification:'Nimbus Sans';text-align:center;writing-mode:lr-tb;text-anchor:middle;opacity:1;fill:#000000;fill-opacity:1;fill-rule:nonzero;stroke:none;stroke-width:0.6415866;stroke-linecap:square;stroke-linejoin:miter;stroke-miterlimit:4;stroke-dasharray:none;stroke-dashoffset:0;stroke-opacity:0.98623855;paint-order:normal"
       x="76.04409"
       y="81.606842"
       id="text4726"
       transform="rotate(-16.522999)"><tspan
         sodipodi:role="line"
         id="tspan4724"
         x="76.04409"
         y="85.696312"
         style="fill:#000000;stroke:none;stroke-width:0.6415866" /></text>
    <g
       id="g948"
       transform="translate(1.917465,8.4368458)">
      <rect
         y="12.013992"
         x="38.444874"
         height="34.552502"
         width="116.91151"
         id="rect926"
         style="opacity:1;fill:#ffffff;fill-opacity:1;stroke:#000000;stroke-width:0.26000649;stroke-linecap:round;stroke-linejoin:bevel;stroke-miterlimit:4;stroke-dasharray:none;stroke-dashoffset:0;stroke-opacity:1;paint-order:markers fill stroke" />
      <g
         transform="translate(20.353347,-111.45132)"
         id="g924">
        <g
           id="g4977"
           transform="translate(50.57853,74.820465)">
          <rect
             style="opacity:1;fill:none;fill-opacity:1;fill-rule:nonzero;stroke:#000000;stroke-width:0.52916664;stroke-linecap:square;stroke-linejoin:miter;stroke-miterlimit:4;stroke-dasharray:none;stroke-dashoffset:0;stroke-opacity:0.98623855;paint-order:normal"
             id="rect4971"
             width="35.07209"
             height="11.690698"
             x="34.471348"
             y="68.641708"
             ry="0" />
          <text
             xml:space="preserve"
             style="font-style:normal;font-variant:normal;font-weight:normal;font-stretch:normal;font-size:4.31245804px;line-height:7.1874299px;font-family:'Nimbus Sans';-inkscape-font-specification:'Nimbus Sans';text-align:center;writing-mode:lr-tb;text-anchor:middle;opacity:1;fill:none;fill-opacity:1;fill-rule:nonzero;stroke:#000000;stroke-width:0.71874297;stroke-linecap:square;stroke-linejoin:miter;stroke-miterlimit:4;stroke-dasharray:none;stroke-dashoffset:0;stroke-opacity:0.98623855;paint-order:normal"
             x="51.641125"
             y="76.009354"
             id="text4975"><tspan
               sodipodi:role="line"
               id="tspan4973"
               x="51.641125"
               y="76.009354"
               style="fill:#000000;stroke:none;stroke-width:0.71874297">Nachricht</tspan></text>
        </g>
        <g
           transform="translate(-12.921472,74.820465)"
           id="g4993">
          <rect
             ry="0"
             y="68.641708"
             x="34.471348"
             height="11.690698"
             width="35.07209"
             id="rect4987"
             style="opacity:1;fill:none;fill-opacity:1;fill-rule:nonzero;stroke:#000000;stroke-width:0.52916664;stroke-linecap:square;stroke-linejoin:miter;stroke-miterlimit:4;stroke-dasharray:none;stroke-dashoffset:0;stroke-opacity:0.98623855;paint-order:normal" />
          <text
             id="text4991"
             y="76.009354"
             x="51.641125"
             style="font-style:normal;font-variant:normal;font-weight:normal;font-stretch:normal;font-size:4.31245804px;line-height:7.1874299px;font-family:'Nimbus Sans';-inkscape-font-specification:'Nimbus Sans';text-align:center;writing-mode:lr-tb;text-anchor:middle;opacity:1;fill:none;fill-opacity:1;fill-rule:nonzero;stroke:#000000;stroke-width:0.71874297;stroke-linecap:square;stroke-linejoin:miter;stroke-miterlimit:4;stroke-dasharray:none;stroke-dashoffset:0;stroke-opacity:0.98623855;paint-order:normal"
             xml:space="preserve"><tspan
               style="fill:#000000;stroke:none;stroke-width:0.71874297"
               y="76.009354"
               x="51.641125"
               id="tspan4989"
               sodipodi:role="line">Log</tspan></text>
        </g>
        <path
           inkscape:connector-curvature="0"
           id="path4997"
           d="M 57.117523,149.77877 H 84.764612"
           style="opacity:1;fill:#000000;fill-opacity:1;fill-rule:nonzero;stroke:#000000;stroke-width:0.39687499;stroke-linecap:square;stroke-linejoin:miter;stroke-miterlimit:4;stroke-dasharray:none;stroke-dashoffset:0;stroke-opacity:0.98623855;paint-order:normal"
           sodipodi:nodetypes="cc" />
        <text
           id="text5001"
           y="148.28487"
           x="68.085396"
           style="font-style:normal;font-variant:normal;font-weight:normal;font-stretch:normal;font-size:3.75249624px;line-height:6.2541604px;font-family:'Nimbus Sans';-inkscape-font-specification:'Nimbus Sans';text-align:center;writing-mode:lr-tb;text-anchor:middle;opacity:1;fill:#000000;fill-opacity:1;fill-rule:nonzero;stroke:none;stroke-width:0.62541604;stroke-linecap:square;stroke-linejoin:miter;stroke-miterlimit:4;stroke-dasharray:none;stroke-dashoffset:0;stroke-opacity:0.98623855;paint-order:normal"
           xml:space="preserve"><tspan
             style="fill:#000000;stroke:none;stroke-width:0.62541604"
             y="148.28487"
             x="68.085396"
             id="tspan4999"
             sodipodi:role="line">anfang &gt;</tspan></text>
        <text
           xml:space="preserve"
           style="font-style:normal;font-variant:normal;font-weight:normal;font-stretch:normal;font-size:3.75249624px;line-height:6.2541604px;font-family:'Nimbus Sans';-inkscape-font-specification:'Nimbus Sans';text-align:center;writing-mode:lr-tb;text-anchor:middle;opacity:1;fill:#000000;fill-opacity:1;fill-rule:nonzero;stroke:none;stroke-width:0.62541604;stroke-linecap:square;stroke-linejoin:miter;stroke-miterlimit:4;stroke-dasharray:none;stroke-dashoffset:0;stroke-opacity:0.98623855;paint-order:normal"
           x="82.085045"
           y="148.28487"
           id="text5005"><tspan
             sodipodi:role="line"
             id="tspan5003"
             x="82.085045"
             y="148.28487"
             style="fill:#000000;stroke:none;stroke-width:0.62541604">0,1</tspan></text>
        <path
           sodipodi:nodetypes="ccccc"
           style="opacity:1;fill:none;fill-opacity:1;fill-rule:nonzero;stroke:#000000;stroke-width:0.39687499;stroke-linecap:square;stroke-linejoin:miter;stroke-miterlimit:4;stroke-dasharray:none;stroke-dashoffset:0;stroke-opacity:0.98623855;paint-order:normal"
           d="m 120.49687,149.77877 h 11.11396 v -19.21241 h -25.79872 v 12.85911"
           id="path5011"
           inkscape:connector-curvature="0" />
        <text
           xml:space="preserve"
           style="font-style:normal;font-variant:normal;font-weight:normal;font-stretch:normal;font-size:3.75249624px;line-height:6.2541604px;font-family:'Nimbus Sans';-inkscape-font-specification:'Nimbus Sans';text-align:center;writing-mode:lr-tb;text-anchor:middle;opacity:1;fill:#000000;fill-opacity:1;fill-rule:nonzero;stroke:none;stroke-width:0.62541604;stroke-linecap:square;stroke-linejoin:miter;stroke-miterlimit:4;stroke-dasharray:none;stroke-dashoffset:0;stroke-opacity:0.98623855;paint-order:normal"
           x="119.06486"
           y="128.8125"
           id="text5015"><tspan
             sodipodi:role="line"
             id="tspan5013"
             x="119.06486"
             y="128.8125"
             style="fill:#000000;stroke:none;stroke-width:0.62541604">&lt; nachfolger</tspan></text>
        <text
           id="text904"
           y="141.67162"
           x="102.10852"
           style="font-style:normal;font-variant:normal;font-weight:normal;font-stretch:normal;font-size:3.75249624px;line-height:6.2541604px;font-family:'Nimbus Sans';-inkscape-font-specification:'Nimbus Sans';text-align:center;writing-mode:lr-tb;text-anchor:middle;opacity:1;fill:#000000;fill-opacity:1;fill-rule:nonzero;stroke:none;stroke-width:0.62541604;stroke-linecap:square;stroke-linejoin:miter;stroke-miterlimit:4;stroke-dasharray:none;stroke-dashoffset:0;stroke-opacity:0.98623855;paint-order:normal"
           xml:space="preserve"><tspan
             style="fill:#000000;stroke:none;stroke-width:0.62541604"
             y="141.67162"
             x="102.10852"
             id="tspan902"
             sodipodi:role="line">0,1</tspan></text>
      </g>
    </g>
    <g
       id="g1228"
       transform="matrix(0.28938043,0,0,0.28938043,78.85931,52.249761)">
      <path
         style="fill:#fdfdfd;stroke-width:0.26458332"
         d="M 28.438734,189.82379 V 94.573793 h 62.70625 62.706246 v 95.249997 95.25 H 91.144984 28.438734 Z"
         id="path1140"
         inkscape:connector-curvature="0" />
      <path
         sodipodi:nodetypes="cccccsscccscccccccccccccscsccccccscccscsccscsccssscccscscccccccccccccccscscccscsccsccssccscscccsccccccscsccccccsscsccccccsssccccccccccccccccccaccccccccccccccccccccccccccc"
         style="fill:#f1f1f1;stroke-width:0.26458332"
         d="m 30.534678,284.47218 c -0.490999,-0.33088 -1.163451,-1.00334 -1.494335,-1.49434 l -0.601609,-0.89272 V 189.82379 97.562465 l 0.601609,-0.892728 c 0.330884,-0.490999 1.003336,-1.163451 1.494335,-1.494335 l 0.892727,-0.601609 h 59.717579 59.717576 l 0.89273,0.601609 c 0.491,0.330884 1.16345,1.003336 1.49433,1.494335 l 0.60161,0.892728 v 92.261325 92.26133 l -0.60161,0.89272 c -0.33088,0.491 -1.00333,1.16346 -1.49433,1.49434 l -0.89273,0.60161 H 91.144984 31.427405 Z M 147.29998,271.48174 c 1.7045,-0.51298 2.97745,-1.57942 3.7602,-3.15019 1.17153,-2.35097 0.79803,-4.89529 -0.99267,-6.76211 -0.85215,-0.88837 -2.25131,-1.76965 -2.46706,-1.5539 -0.0639,0.0639 0.22919,0.25925 0.65131,0.4341 0.42213,0.17485 1.13429,0.69689 1.58258,1.16009 4.52857,4.67918 -1.02286,12.15322 -6.81872,9.18022 -1.22877,-0.63031 -1.9741,-1.45429 -2.6359,-2.91408 -0.29688,-0.65484 -0.5424,-1.03588 -0.54559,-0.84676 -0.0175,1.03682 1.67763,3.24469 3.03518,3.95321 1.74821,0.91239 2.70143,1.01984 4.43067,0.49942 z m -13.82166,-0.43087 c 0.47349,-0.47349 0.52916,-0.88194 0.52916,-3.88207 v -3.35291 l 1.80647,-1.80647 1.80646,-1.80647 H 85.675409 c -51.592231,0 -51.948602,0.004 -52.474175,0.52917 -0.488112,0.48811 -0.529167,0.88194 -0.529167,5.07618 0,4.30437 0.0307,4.57968 0.575288,5.15937 l 0.575287,0.61237 h 49.563253 c 49.210475,0 49.567025,-0.004 50.092425,-0.52917 z m 12.83149,-3.70417 c 0.45876,0 1.45924,-1.26067 1.44565,-1.82161 -0.006,-0.23504 -0.17105,-0.0582 -0.36745,0.39295 -0.36992,0.84975 -0.85754,1.16408 -1.80581,1.16408 -0.70522,0 -1.52055,-0.73134 -1.52055,-1.36392 0,-0.26849 -0.11287,-0.48816 -0.25082,-0.48816 -0.57698,0 0.35325,1.67213 1.0836,1.9478 0.46304,0.17478 0.76864,0.49253 0.79075,0.82218 0.0321,0.47827 0.0486,0.4719 0.15069,-0.058 0.0631,-0.32742 0.27634,-0.59532 0.47394,-0.59532 z m -5.53553,-4.68807 c 0.98847,-1.6867 2.40853,-2.51728 4.7002,-2.7491 l 1.89446,-0.19164 -1.90682,0.0521 c -1.64497,0.0449 -2.06196,0.16113 -3.03646,0.84603 -1.55781,1.09487 -2.5811,2.83165 -2.7273,4.62892 l -0.11716,1.44031 0.26115,-1.44101 c 0.14363,-0.79255 0.563,-1.95608 0.93193,-2.58561 z m 5.61559,2.08955 0.0793,-1.67249 -0.74072,0.085 c -0.68485,0.0786 -0.7469,0.18223 -0.82269,1.37428 -0.10534,1.65677 0.0666,2.07575 0.80839,1.97041 0.537,-0.0763 0.6044,-0.25153 0.67576,-1.75719 z m -21.33291,-27.20811 c 0.43367,-0.39246 0.48386,-0.91857 0.48386,-5.07239 0,-3.94117 -0.0655,-4.7069 -0.43789,-5.11837 -0.42098,-0.46518 -2.19506,-0.48386 -45.964253,-0.48386 H 33.612301 l 1.778842,1.79258 1.778841,1.79258 v 3.27982 c 0,2.68061 0.08,3.36821 0.437882,3.76367 0.420812,0.46499 2.124431,0.48385 43.701563,0.48385 39.886011,0 43.301451,-0.0342 43.747531,-0.43788 z M 97.110131,204.2556 c 0.63733,-0.63732 0.64944,-0.73123 0.64944,-5.0391 0,-4.30787 -0.0121,-4.40178 -0.64944,-5.03911 l -0.64943,-0.64944 h -31.36515 c -17.250832,0 -31.36515,0.0397 -31.36515,0.0882 0,0.0485 0.773906,0.8621 1.719791,1.80799 l 1.719792,1.71979 v 3.35138 c 0,2.99862 0.0557,3.4071 0.529167,3.88056 0.522755,0.52276 0.881944,0.52917 29.645358,0.52917 h 29.116192 z m 12.555689,-55.70681 c 0.48711,-0.48712 0.52916,-0.88195 0.52916,-4.96821 0,-3.58947 -0.0788,-4.55159 -0.41187,-5.02709 l -0.41188,-0.58804 H 71.491766 33.612301 l 1.778842,1.79258 1.778841,1.79258 v 3.27982 c 0,2.68061 0.08,3.36821 0.437882,3.76367 0.420074,0.46418 1.883497,0.48385 35.983334,0.48385 35.19267,0 35.5507,-0.005 36.07462,-0.52916 z M 68.344827,122.68584 c -7.228578,-0.0391 -19.134827,-0.0391 -26.458334,-3e-5 -7.323507,0.0391 -1.409217,0.0711 13.142866,0.0711 14.552083,2e-5 20.544044,-0.032 13.315468,-0.0711 z m 83.994713,0.004 c -0.75867,-0.0533 -2.06836,-0.0537 -2.91042,-0.001 -0.84206,0.0527 -0.22132,0.0962 1.3794,0.0968 1.60073,5.3e-4 2.28969,-0.0425 1.53102,-0.0958 z m -6.85072,-5.42768 c 0.39664,-0.63347 -0.087,-1.36471 -0.97304,-1.47107 -0.87992,-0.10562 -1.41029,0.73936 -0.97481,1.55307 0.354,0.66146 1.51288,0.61268 1.94785,-0.082 z m -110.99589,-1.94984 -1.405911,-1.4236 h 2.835232 c 1.713767,0 2.835233,-0.10465 2.835233,-0.26458 0,-0.15993 -1.121466,-0.26459 -2.835233,-0.26459 h -2.835232 l 1.405911,-1.42359 c 0.773251,-0.78298 1.295844,-1.49162 1.161318,-1.57476 -0.134526,-0.0831 -1.005939,0.61701 -1.936473,1.55588 l -1.691879,1.70706 1.691879,1.70705 c 0.930534,0.93888 1.801947,1.63903 1.936473,1.55589 0.134526,-0.0831 -0.388067,-0.79179 -1.161318,-1.57476 z m 12.71799,-0.14037 c 0.216087,-0.072 0.186339,-0.3792 -0.104024,-1.07414 -0.403775,-0.96637 -0.373171,-1.35994 0.198036,-2.54677 0.605802,-1.2587 2.897635,-1.79235 4.095192,-0.95355 0.672594,0.4711 1.381058,1.71378 1.378647,2.4182 -9e-4,0.26188 -0.183077,0.8241 -0.404845,1.24937 -0.322821,0.61904 -0.335684,0.81606 -0.06452,0.98813 0.186284,0.11821 0.41061,0.21675 0.498501,0.21898 0.08789,0.002 0.480937,0.30167 0.873433,0.66542 l 0.713631,0.66137 0.431026,-0.9921 c 0.237066,-0.54565 0.436289,-1.64694 0.442721,-2.44731 0.04356,-5.42125 -7.062456,-7.51085 -10.161501,-2.98809 -0.865036,1.26243 -1.05699,3.90489 -0.390953,5.38189 l 0.466497,1.03451 0.862762,-0.75752 c 0.474519,-0.41663 0.998946,-0.80291 1.165393,-0.85839 z m 44.749679,0.10166 c 1.005483,-1.12557 1.059196,-2.60879 0.133461,-3.68524 l -0.638423,-0.74236 -14.575589,-0.0727 c -16.026599,-0.0799 -15.750207,-0.10537 -16.419735,1.51101 -0.631693,1.52505 0.02823,3.06253 1.585944,3.69495 0.418002,0.16971 5.823744,0.24676 14.899238,0.21237 l 14.243222,-0.054 z m 53.274521,-0.83676 c 0.55375,-0.6119 0.35313,-1.50616 -0.39089,-1.7423 -0.60662,-0.19253 -0.94567,-0.019 -1.31639,0.67368 -0.21263,0.3973 -0.15513,0.6253 0.26316,1.04359 0.66405,0.66406 0.86269,0.6675 1.44412,0.025 z m 0.2537,-3.26011 c 0.39664,-0.63347 -0.087,-1.36471 -0.97304,-1.47106 -0.87992,-0.10563 -1.41029,0.73936 -0.97481,1.55307 0.354,0.66146 1.51288,0.61267 1.94785,-0.082 z"
         id="path1138"
         inkscape:connector-curvature="0" />
      <path
         sodipodi:nodetypes="ccsccccccscccsccccscscccccsccsccccccccccccccccssccccccccccccccccccccsccccccscssscssccccccsccccccccscccsccccscsccscccscccscccscccscscccsccsccccccscccccscccccsssccccccccccsscccccccsccscssscccssscccccccccscccccccccccsssssccccccccccccccccsscccccccscccscssszssccccc"
         style="fill:#e8e8e9;stroke-width:0.26458332"
         d="m 30.775133,284.53753 c -0.533991,-0.28208 -1.248366,-0.90189 -1.5875,-1.37737 -0.582905,-0.81725 -0.621117,-1.12842 -0.699116,-5.69314 l -0.08251,-4.82865 h 62.738975 62.738978 l -0.0825,4.82865 c -0.078,4.56702 -0.11597,4.87556 -0.7001,5.69453 -0.33968,0.47624 -1.07908,1.10131 -1.64311,1.38906 -1.01278,0.51668 -1.76226,0.52303 -60.368863,0.51148 -58.192623,-0.0115 -59.36218,-0.0216 -60.314246,-0.52456 z m 2.207638,-13.30527 c -0.546701,-0.58194 -0.575287,-0.84917 -0.575287,-5.37784 0,-4.70367 0.0083,-4.7733 0.642545,-5.36912 0.3534,-0.332 0.799885,-0.54075 0.992188,-0.46388 0.249378,0.0997 0.228624,0.14575 -0.07237,0.16065 -0.232107,0.0115 -0.61906,0.23862 -0.859895,0.50474 -0.373532,0.41275 -0.437883,1.1882 -0.437883,5.27666 0,4.65282 0.01718,4.80484 0.588038,5.20469 0.527151,0.36923 5.730422,0.41188 50.251631,0.41188 h 49.663592 l 0.54837,-0.69714 c 0.48555,-0.61729 0.54887,-1.06431 0.55281,-3.90261 l 0.004,-3.20546 1.88487,-1.9251 c 1.03668,-1.05881 1.92427,-1.8857 1.97243,-1.83754 0.0482,0.0482 -0.7425,0.91126 -1.75702,1.918 l -1.84458,1.83045 v 3.13334 c 0,3.13285 -0.18548,3.95895 -1.0354,4.6115 -0.32649,0.25066 -11.48184,0.32418 -50.181499,0.33073 l -49.761691,0.008 z m 111.475749,0.10037 c -2.77474,-0.6755 -4.4675,-2.82858 -4.48587,-5.70572 -0.0259,-4.06459 4.04125,-6.78912 7.92225,-5.30695 1.27452,0.48674 2.63874,1.85835 3.21131,3.22869 0.50481,1.20819 0.44467,3.19749 -0.13527,4.47428 -0.63632,1.40093 -2.40937,2.89799 -3.86694,3.26501 -1.2802,0.32236 -1.49033,0.32591 -2.64548,0.0447 z m 1.85129,-3.98593 c 0.46434,0 1.46239,-1.26737 1.43452,-1.82161 -0.0124,-0.24666 -0.16197,-0.10962 -0.35374,0.32413 -0.18273,0.41331 -0.50048,0.85797 -0.70611,0.98813 -0.98574,0.62399 -2.62283,-0.0746 -2.62283,-1.11915 0,-0.26849 -0.10877,-0.48816 -0.2417,-0.48816 -0.59379,0 0.18547,1.48028 0.97499,1.85208 0.49686,0.23399 0.8599,0.61406 0.88452,0.92604 0.0365,0.46269 0.0562,0.45437 0.15641,-0.0661 0.0631,-0.32742 0.27634,-0.59532 0.47394,-0.59532 z m 0.0801,-2.59852 0.0793,-1.67249 -0.74072,0.085 c -0.68485,0.0786 -0.7469,0.18223 -0.82269,1.37428 -0.10534,1.65677 0.0666,2.07575 0.80839,1.97041 0.537,-0.0763 0.6044,-0.25153 0.67576,-1.75719 z m -88.558383,-9.85907 c -1.24686,-0.50178 -1.329547,-0.86483 -1.338506,-5.87683 -0.0083,-4.65143 -5.29e-4,-4.71623 0.641019,-5.35781 l 0.649431,-0.64943 h 46.109469 46.10946 l -2.04431,2.05637 -2.04432,2.05638 v 3.22053 c 0,3.02294 -0.0392,3.26609 -0.63852,3.9629 l -0.63853,0.74236 -43.08387,0.051 c -27.330036,0.0324 -43.316955,-0.0428 -43.721323,-0.2055 z M 37.338355,237.80958 c -0.680084,-0.68008 -0.697538,-0.78122 -0.697538,-4.04199 v -3.34445 l -1.852083,-1.83789 c -1.018646,-1.01084 -1.852083,-1.93039 -1.852083,-2.04343 0,-0.11304 20.662755,-0.20553 45.917233,-0.20553 h 45.917236 l 0.64943,0.64943 c 0.64166,0.64166 0.64943,0.70674 0.64943,5.43598 0,4.72925 -0.008,4.79433 -0.64943,5.43599 l -0.64943,0.64943 H 81.403507 38.035893 Z m 88.055165,-0.41966 c 0.33279,-0.47512 0.41188,-1.43484 0.41188,-4.99777 0,-3.94753 -0.053,-4.47521 -0.50578,-5.03436 l -0.50577,-0.62463 -45.725288,-0.0684 -45.725287,-0.0684 1.764001,1.78818 1.764001,1.78818 0.08321,3.52761 c 0.07385,3.13113 0.140933,3.56977 0.596798,3.90261 0.438261,0.31999 6.887752,0.37498 43.971977,0.37498 H 124.98164 Z M 82.20973,221.66129 c -0.889659,-0.35795 -1.118913,-1.5899 -1.118913,-6.01273 0,-4.23168 0.01937,-4.38652 0.638522,-5.10637 l 0.638522,-0.74236 33.426289,-0.0692 c 18.38447,-0.0381 33.59747,-0.003 33.80668,0.0768 0.26719,0.10253 -0.2248,0.75471 -1.65336,2.1917 l -2.03374,2.04574 v 3.24732 c 0,3.09499 -0.0305,3.27778 -0.64943,3.89675 l -0.64943,0.64943 -31.03442,-0.0209 c -17.068939,-0.0115 -31.185758,-0.0818 -31.37072,-0.15619 z M 37.189187,204.47248 c -0.486108,-0.61799 -0.54837,-1.06042 -0.54837,-3.89675 v -3.19961 l -2.044313,-2.05638 -2.044314,-2.05637 h 32.091916 c 21.137454,0 32.262655,0.0914 32.592115,0.2677 0.77616,0.41539 1.04943,1.93497 1.05104,5.84438 0.002,3.76179 -0.25676,5.10139 -1.0673,5.53517 -0.30737,0.1645 -11.247073,0.259 -29.983172,0.259 H 37.737558 Z m 60.041214,-0.0966 c 0.48885,-0.48885 0.52917,-0.88194 0.52917,-5.15937 0,-4.27744 -0.0403,-4.67053 -0.52917,-5.15938 -0.52327,-0.52327 -0.88194,-0.52917 -32.205925,-0.52917 H 33.347718 l 1.778841,1.79258 1.778842,1.79258 v 3.19882 c 0,2.83554 0.06228,3.278 0.54837,3.89597 l 0.54837,0.69714 h 29.349546 c 28.996774,0 29.355904,-0.006 29.878714,-0.52917 z m -46.857626,-16.38984 -0.77942,-0.77942 0.07217,-16.0451 0.07217,-16.0451 0.624624,-0.50568 c 0.609983,-0.49384 1.785091,-0.50569 50.132331,-0.50569 h 49.50771 l -2.04431,2.05637 -2.04432,2.05638 -0.008,14.54623 c -0.009,15.35048 0.0163,15.02933 -1.23096,15.69363 -0.43307,0.23065 -12.22616,0.3078 -47.050039,0.3078 H 51.152196 Z M 37.831442,149.28755 c -1.059604,-0.60768 -1.173544,-1.03657 -1.18221,-4.45002 l -0.0084,-3.31439 -1.852083,-1.83789 c -1.018646,-1.01084 -1.852083,-1.93039 -1.852083,-2.04343 0,-0.11304 17.193947,-0.20553 38.208773,-0.20553 h 38.208771 l 0.70157,0.83376 0.70156,0.83376 -0.0827,4.61369 -0.0827,4.61369 -0.74236,0.63797 -0.74237,0.63796 -35.373258,-0.008 c -26.107487,-0.006 -35.51188,-0.0875 -35.902435,-0.31153 z m 71.879688,-0.64748 c 0.43417,-0.39292 0.48385,-0.92069 0.48385,-5.14017 v -4.70229 l -0.69714,-0.54837 -0.69714,-0.54837 H 71.074211 33.347718 l 1.778841,1.79258 1.778842,1.79258 v 3.11961 c 0,2.9852 0.205511,4.00643 0.899505,4.46983 0.160116,0.10691 16.295651,0.19621 35.856745,0.19843 32.726379,0.004 35.604249,-0.0309 36.049479,-0.43383 z M 82.126222,132.59923 c -0.892323,-0.68511 -1.035405,-1.45544 -1.035405,-5.57454 0,-3.02955 0.08613,-4.13114 0.33073,-4.22984 0.181901,-0.0734 -11.668149,-0.14285 -26.333448,-0.15434 l -26.664175,-0.0209 0.07355,-12.63385 0.07355,-12.633855 0.617594,-0.865883 c 0.339677,-0.476237 1.079074,-1.101315 1.643105,-1.389062 1.012651,-0.516616 1.769712,-0.523122 60.368864,-0.518824 l 59.343353,0.0044 1.03346,0.59096 c 0.5684,0.325028 1.28278,0.926998 1.5875,1.337712 0.54167,0.730087 0.55568,1.029777 0.62759,13.427602 l 0.0736,12.68085 -3.24855,0.004 c -1.7867,0.002 -3.10061,0.098 -2.9198,0.21283 0.23442,0.14887 0.0257,0.50472 -0.72761,1.24027 l -1.05635,1.0315 v 3.26562 c 0,3.11442 -0.0301,3.29569 -0.64943,3.91505 l -0.64943,0.64943 -31.03442,-0.008 c -23.97855,-0.007 -31.129872,-0.0817 -31.45423,-0.33073 z m 63.362598,-15.33742 c 0.39664,-0.63347 -0.087,-1.36471 -0.97304,-1.47107 -0.87992,-0.10562 -1.41029,0.73936 -0.97481,1.55307 0.354,0.66146 1.51288,0.61268 1.94785,-0.082 z m -110.99589,-1.94984 -1.405911,-1.4236 h 2.835232 c 1.713767,0 2.835233,-0.10465 2.835233,-0.26458 0,-0.15875 -1.058333,-0.26459 -2.645833,-0.26459 -1.455209,0 -2.645834,-0.0852 -2.645834,-0.18934 0,-0.10415 0.5472,-0.74491 1.215999,-1.42392 0.668799,-0.67901 1.106162,-1.30244 0.971919,-1.38541 -0.134244,-0.083 -1.005426,0.61733 -1.93596,1.5562 l -1.691879,1.70706 1.691879,1.70705 c 0.930534,0.93888 1.801947,1.63903 1.936473,1.55589 0.134526,-0.0831 -0.388067,-0.79179 -1.161318,-1.57476 z m 12.938799,-0.10068 c 0.274321,0 0.261072,-0.12924 -0.06028,-0.58804 -0.847383,-1.20981 -0.387851,-3.23281 0.908262,-3.99844 2.400957,-1.41828 5.348759,1.1121 4.133488,3.54817 -0.342604,0.68676 -0.36359,0.91487 -0.09958,1.08246 0.183973,0.11678 0.395245,0.21415 0.469492,0.21638 0.07425,0.002 0.45745,0.30305 0.851561,0.66849 l 0.716566,0.66444 0.460265,-0.86288 c 0.671809,-1.25946 0.612748,-3.74343 -0.12238,-5.14702 -1.526641,-2.91485 -5.150994,-3.7935 -8.053932,-1.95251 -2.147478,1.36189 -3.014197,4.48176 -1.919477,6.90942 l 0.463031,1.02682 0.950698,-0.78365 c 0.522884,-0.431 1.108916,-0.78364 1.302293,-0.78364 z M 91.266774,115.86 c 1.645378,-0.78079 2.006106,-3.05944 0.692312,-4.37323 l -0.773396,-0.7734 H 76.757995 c -10.622364,0 -14.610672,0.0834 -15.121445,0.3161 -1.22242,0.55697 -1.823633,2.45605 -1.166347,3.6842 0.154808,0.28927 0.660823,0.75724 1.124479,1.03995 0.806598,0.49182 1.446983,0.51407 14.825941,0.51501 12.076022,8.5e-4 14.100651,-0.0549 14.846151,-0.40863 z m 53.966606,-1.32907 c 0.22867,-0.22867 0.41577,-0.57736 0.41577,-0.77485 0,-0.46326 -0.72737,-1.19063 -1.19063,-1.19063 -0.43154,0 -1.19062,0.71569 -1.19062,1.12255 0,0.41476 0.81312,1.2587 1.21273,1.2587 0.18534,0 0.52407,-0.18709 0.75275,-0.41577 z m 0.25544,-3.35454 c 0.39664,-0.63347 -0.087,-1.36471 -0.97304,-1.47106 -0.87992,-0.10563 -1.41029,0.73936 -0.97481,1.55307 0.354,0.66146 1.51288,0.61267 1.94785,-0.082 z"
         id="path1136"
         inkscape:connector-curvature="0" />
      <path
         sodipodi:nodetypes="ccsscccccccscccscccccsscccccccccccccsccccccsccccccscscccccscccscsscccsccsccscccccccccccsscsscccccccsccccssssssscccccscscsccccsccsccccsscscscccccccccccc"
         style="fill:#cbcbcb;stroke-width:0.26458332"
         d="m 31.341876,284.62959 c -1.007186,-0.68388 -2.417107,-1.93657 -2.184744,-1.9411 0.114204,-0.002 0.02905,-0.11674 -0.189231,-0.25447 -0.322675,-0.2036 -0.412431,-1.11798 -0.480076,-4.89074 l -0.0832,-4.64033 h 62.740359 62.740356 l -0.0832,4.64033 c -0.0676,3.77276 -0.1574,4.68714 -0.48007,4.89074 -0.21828,0.13773 -0.30344,0.25224 -0.18923,0.25447 0.23236,0.005 -1.17756,1.25722 -2.18475,1.9411 -0.60764,0.4126 -4.86204,0.4442 -59.803106,0.4442 -54.94107,0 -59.195463,-0.0316 -59.803108,-0.4442 z M 144.31004,271.21836 c -4.32769,-1.16511 -5.83276,-6.43671 -2.70726,-9.48238 3.84358,-3.74539 9.8672,-1.22503 9.8672,4.12857 0,3.51556 -3.70303,6.28448 -7.15994,5.35381 z m 2.23493,-3.97272 c 0.33053,-0.083 0.74043,-0.45694 0.9109,-0.83108 0.4631,-1.0164 0.35353,-1.43786 -0.13598,-0.52306 -0.5162,0.96466 -0.81744,1.18131 -1.64991,1.18657 -0.77982,0.005 -1.60833,-0.69559 -1.60833,-1.35987 0,-0.26849 -0.12709,-0.48816 -0.28241,-0.48816 -0.17056,0 -0.21013,0.23578 -0.0999,0.59531 0.25143,0.82015 0.65011,1.27109 1.36363,1.54237 0.33341,0.12676 0.6224,0.44178 0.64222,0.70004 0.0264,0.34385 0.0659,0.31685 0.14743,-0.10086 0.0621,-0.3181 0.37724,-0.63715 0.71236,-0.72126 z m -0.15499,-1.01019 c 0.46335,-0.46334 0.39677,-2.47584 -0.0983,-2.97089 -0.49901,-0.49901 -0.70038,-0.5167 -1.11881,-0.0983 -0.33274,0.33274 -0.44583,2.90555 -0.14111,3.21027 0.28081,0.28082 1.01227,0.20482 1.35819,-0.14111 z M 57.297521,253.94956 c -0.504174,-0.64095 -0.54837,-1.04708 -0.54837,-5.0391 0,-4.25722 0.01267,-4.35465 0.649433,-4.99141 l 0.64943,-0.64943 h 45.579406 45.57941 l -1.77884,1.79258 -1.77884,1.79258 v 3.19882 c 0,2.83553 -0.0623,3.278 -0.54837,3.89596 l -0.54837,0.69714 H 101.19915 57.845891 Z m 24.85163,-32.90494 c -0.48963,-0.48963 -0.529167,-0.88194 -0.529167,-5.25066 0,-4.23809 0.04954,-4.76632 0.483854,-5.15937 0.444839,-0.40258 3.169814,-0.43789 33.793422,-0.43789 h 33.30957 l -1.76135,1.78594 -1.76135,1.78594 -0.0836,3.39741 c -0.0788,3.20135 -0.11969,3.42656 -0.70827,3.9026 -0.60674,0.49074 -1.50613,0.5052 -31.41927,0.5052 -30.441866,0 -30.800704,-0.006 -31.323809,-0.52917 z M 50.57245,187.75243 c -0.397317,-0.43902 -0.437883,-1.96959 -0.437883,-16.52145 v -16.0376 l 0.588038,-0.41188 c 0.527076,-0.36918 5.662505,-0.41188 49.536135,-0.41188 h 48.94809 l -1.77884,1.79258 -1.77884,1.79258 v 14.44361 c 0,14.21159 -0.009,14.45482 -0.54837,15.14076 l -0.54837,0.69714 H 97.781371 c -44.975004,0 -46.787854,-0.0186 -47.208921,-0.48386 z m 31.973576,-55.39297 c -0.291042,-0.16605 -0.616641,-0.43114 -0.723554,-0.5891 -0.106913,-0.15796 -0.196209,-2.22196 -0.198437,-4.58668 l -0.0041,-4.29948 h 32.949835 32.94983 l -0.91493,0.80332 -0.91493,0.80332 -0.0865,3.55361 c -0.0726,2.98396 -0.16221,3.62924 -0.5589,4.02533 -0.44713,0.44645 -2.1195,0.47493 -31.22084,0.53165 -22.645217,0.0441 -30.887848,-0.0196 -31.277563,-0.24197 z M 28.497405,110.04213 c 0.06344,-10.837485 0.128525,-12.612165 0.470496,-12.82823 0.218281,-0.137915 0.301443,-0.252577 0.184805,-0.254805 -0.30453,-0.0058 1.078892,-1.24721 2.078114,-1.864763 0.839322,-0.51873 1.444381,-0.523313 60.212773,-0.456121 58.933487,0.06738 59.369407,0.07172 59.981437,0.59704 1.3878,1.191198 1.91304,1.720007 1.71223,1.723844 -0.11664,0.0022 -0.0335,0.11689 0.18481,0.254805 0.34197,0.216065 0.40706,1.990745 0.47049,12.82823 l 0.0736,12.57749 H 91.144984 28.423785 Z m 116.991415,7.21968 c 0.6387,-1.02007 -1.17263,-2.06879 -1.95174,-1.13002 -0.56434,0.67999 0.0695,1.78335 0.96314,1.67654 0.38428,-0.0459 0.82914,-0.29186 0.9886,-0.54652 z M 34.681816,115.50163 c -0.668799,-0.67901 -1.215999,-1.31977 -1.215999,-1.42391 0,-0.10414 1.190625,-0.18935 2.645834,-0.18935 1.5875,0 2.645833,-0.10583 2.645833,-0.26458 0,-0.15875 -1.058333,-0.26459 -2.645833,-0.26459 -1.455209,0 -2.645834,-0.0852 -2.645834,-0.18934 0,-0.10415 0.558369,-0.75625 1.24082,-1.44912 0.68245,-0.69287 1.154291,-1.34629 1.048534,-1.45204 -0.105757,-0.10576 -0.989272,0.6047 -1.963366,1.57879 l -1.77108,1.77108 1.694465,1.70966 c 0.931956,0.94032 1.804301,1.64178 1.938545,1.55881 0.134243,-0.083 -0.30312,-0.7064 -0.971919,-1.38541 z m 12.519492,-0.1508 c 0.464861,-0.14754 0.476642,-0.22398 0.13535,-0.87818 -0.577108,-1.10622 -0.466034,-2.29006 0.300317,-3.20081 1.691888,-2.0107 4.878842,-0.92132 4.878842,1.6677 0,0.60262 -0.179519,1.35197 -0.398932,1.66523 -0.366373,0.52307 -0.35546,0.58335 0.133719,0.73861 0.292959,0.093 0.883253,0.46407 1.311765,0.82464 l 0.779113,0.65558 0.402516,-0.77838 c 1.954437,-3.77947 -0.833348,-8.23404 -5.157299,-8.24079 -1.567152,-0.002 -3.69629,1.25893 -4.586174,2.71701 -0.944174,1.54703 -1.073499,3.71915 -0.314592,5.28384 l 0.480592,0.99087 0.762802,-0.64186 c 0.419541,-0.35302 0.991933,-0.71458 1.271981,-0.80346 z m 43.886735,0.63441 c 1.070409,-0.37315 1.644441,-1.29368 1.644441,-2.63708 0,-0.84974 -0.16936,-1.25735 -0.773398,-1.86139 l -0.773396,-0.7734 H 76.757995 c -10.622364,0 -14.610672,0.0834 -15.121445,0.3161 -0.823167,0.37506 -1.447816,1.47329 -1.447816,2.5455 0,0.87013 0.850963,2.09626 1.69019,2.43534 0.850445,0.34362 28.218884,0.32013 29.209119,-0.0251 z m 54.145337,-1.45431 c 0.5764,-0.57641 0.51958,-1.36213 -0.12339,-1.70624 -1.20756,-0.64627 -2.32757,0.61786 -1.42806,1.61181 0.56008,0.61888 1.00021,0.64567 1.55145,0.0944 z m 0.25544,-3.35454 c 0.6387,-1.02006 -1.17263,-2.06879 -1.95174,-1.13002 -0.56434,0.68 0.0695,1.78335 0.96314,1.67655 0.38428,-0.0459 0.82914,-0.29187 0.9886,-0.54653 z"
         id="path1134"
         inkscape:connector-curvature="0" />
      <path
         sodipodi:nodetypes="cccsccsccccccccscccsscssssccssccscscccscsccccscscccsccccssscccccscccscccccscsccccccccccsccssccscccscccccccccccccccccccsscscccsccccccccccccccscsccsssscssssccccccccsccscccccscsssscccsccc"
         style="fill:#cbfd8f;stroke-width:0.26458332"
         d="m 72.919656,280.93817 c -0.338791,-0.2373 -0.787866,-0.84282 -0.997942,-1.34561 -0.475949,-1.1391 -0.11516,-2.45557 0.889563,-3.24588 0.664335,-0.52257 1.033021,-0.53331 18.310516,-0.53331 19.591807,0 18.460307,-0.10447 19.246457,1.77706 0.47595,1.13911 0.11516,2.45557 -0.88956,3.24589 -0.66433,0.52256 -1.03302,0.5333 -18.310515,0.5333 -15.873217,0 -17.693992,-0.043 -18.248519,-0.43145 z m 69.951364,-10.38353 c -1.87639,-1.11425 -2.60863,-2.32665 -2.73284,-4.52486 -0.0792,-1.4015 0.0129,-1.99325 0.44088,-2.83212 2.65355,-5.20137 10.23532,-3.73657 10.79726,2.08605 0.11392,1.18033 0.0172,1.63095 -0.61314,2.85511 -1.07505,2.08799 -2.48214,3.0021 -4.7947,3.11487 -1.5783,0.077 -1.92083,-2.7e-4 -3.09746,-0.69905 z m 3.04271,-2.65009 c 0,-0.31163 0.24672,-0.5624 0.65383,-0.66458 0.72815,-0.18275 1.28147,-1.00616 1.13772,-1.69307 -0.0713,-0.3408 -0.18705,-0.26356 -0.47975,0.32019 -0.50897,1.01509 -1.07037,1.33299 -1.95979,1.10976 -0.47724,-0.11978 -0.83205,-0.45382 -1.025,-0.965 -0.34281,-0.9082 -0.83184,-1.07033 -0.5625,-0.1865 0.23568,0.77338 0.89963,1.52135 1.35046,1.52135 0.19572,0 0.35587,0.23813 0.35587,0.52917 0,0.29104 0.11906,0.52917 0.26458,0.52917 0.14552,0 0.26458,-0.22522 0.26458,-0.50049 z m 0.67483,-1.97213 c 0.26209,-1.04422 0.017,-2.61417 -0.45421,-2.9092 -0.7682,-0.48101 -1.27895,0.23712 -1.27895,1.79824 0,1.5531 0.0994,1.73149 0.9651,1.73149 0.42171,0 0.6608,-0.19316 0.76806,-0.62053 z M 57.280802,253.92831 c -0.534792,-0.67988 -0.560647,-0.95779 -0.482225,-5.18332 0.08028,-4.32548 0.102373,-4.4807 0.707488,-4.97015 0.609346,-0.49286 1.738485,-0.50522 46.163175,-0.50522 h 45.53854 l -1.91161,1.92445 -1.9116,1.92445 v 3.32621 c 0,2.88636 -0.064,3.38412 -0.48386,3.76409 -0.44608,0.4037 -3.86303,0.43788 -43.76934,0.43788 H 57.845891 Z m 25.036322,-32.90289 -0.69714,-0.54837 v -4.7283 c 0,-4.58614 0.01767,-4.74067 0.588039,-5.14017 0.524616,-0.36745 4.159819,-0.41188 33.705377,-0.41188 h 33.11734 l -1.75694,1.70493 -1.75694,1.70493 -0.13229,3.64591 c -0.12934,3.56455 -0.14706,3.65336 -0.79375,3.97972 -0.52086,0.26284 -7.13571,0.33463 -31.11901,0.3377 -30.415363,0.004 -30.458512,0.003 -31.154686,-0.54447 z M 50.57245,187.75243 c -0.397242,-0.43894 -0.437883,-1.96144 -0.437883,-16.40416 0,-15.56754 0.01173,-15.93204 0.529167,-16.44948 0.525357,-0.52536 0.881944,-0.52917 49.536606,-0.52917 h 49.00744 l -1.90364,1.91823 -1.90364,1.91823 -0.0123,14.53606 c -0.0111,13.08492 -0.0556,14.58389 -0.44585,15.01511 -0.41528,0.45889 -2.40012,0.47904 -47.182749,0.47904 -44.953885,0 -46.766056,-0.0186 -47.187121,-0.48386 z m 31.485417,-55.82708 c -0.369456,-0.40824 -0.437883,-1.15247 -0.437883,-4.7625 v -4.27865 h 32.839116 32.83912 l -0.95683,1.0591 -0.95682,1.0591 v 3.28763 c 0,2.63597 -0.0824,3.37004 -0.41578,3.7034 -0.37325,0.37325 -3.58934,0.41577 -31.44441,0.41577 -29.724015,0 -31.047043,-0.0203 -31.466513,-0.48385 z M 28.438734,113.75608 v -8.86354 h 62.70625 62.706246 v 8.86354 8.86354 H 91.144984 28.438734 Z m 23.701149,4.72005 c 1.110986,-0.50704 2.622908,-2.14626 2.986702,-3.23818 0.717106,-2.15235 0.07721,-4.52959 -1.620498,-6.02019 -3.381861,-2.96932 -8.65926,-0.99231 -9.339641,3.4988 -0.643863,4.25005 3.973258,7.5852 7.973437,5.75957 z m -4.833554,-0.37435 c -1.745813,-0.86417 -1.936387,-1.2431 -0.999622,-1.98762 0.431834,-0.34321 0.983589,-0.7959 1.226124,-1.00598 0.242535,-0.21008 0.529514,-0.30259 0.637732,-0.20557 0.108218,0.097 0.109913,0.0256 0.0038,-0.15866 -0.106146,-0.18427 -0.304052,-0.26641 -0.43979,-0.18252 -0.135738,0.0839 -0.374804,-0.18205 -0.531258,-0.59099 -0.368609,-0.96347 0.08165,-2.55515 0.881244,-3.1152 0.883962,-0.61916 2.679679,-0.52223 3.506856,0.18927 0.875274,0.75288 1.163425,2.45985 0.547065,3.24074 l -0.417677,0.52916 0.157899,-0.52916 c 0.120375,-0.40341 0.09491,-0.44055 -0.107163,-0.15629 -0.403326,0.56739 -0.115884,0.99311 1.185461,1.75574 1.165193,0.68285 1.177973,0.70519 0.70353,1.22982 -1.401942,1.55022 -4.305482,2.00135 -6.354167,0.98726 z m 5.775489,-1.84096 c -0.343543,-0.2862 -0.760262,-0.51974 -0.926041,-0.51897 -0.16578,7.6e-4 0.05577,0.23019 0.492332,0.50982 1.03112,0.66048 1.220333,0.66447 0.433709,0.009 z m -5.718375,-0.46927 c -0.08146,-0.0815 -0.294955,-1.6e-4 -0.474431,0.18066 -0.259363,0.2613 -0.228972,0.29169 0.148112,0.14811 0.260938,-0.0994 0.407782,-0.24731 0.326319,-0.32877 z m 4.798436,-3.02766 c -0.0734,-0.1819 -0.133452,-0.0331 -0.133452,0.33073 0,0.3638 0.06005,0.51263 0.133452,0.33073 0.0734,-0.1819 0.0734,-0.47956 0,-0.66146 z m -4.008867,-1.25677 0.526347,-0.66146 -0.595312,0.50403 c -0.327422,0.27722 -0.595313,0.62448 -0.595313,0.7717 0,0.14722 0.03104,0.21807 0.06896,0.15743 0.03793,-0.0606 0.305822,-0.4079 0.595313,-0.7717 z m 3.601887,0.19403 c -0.261307,-0.25936 -0.291698,-0.22897 -0.148112,0.14811 0.09936,0.26094 0.247303,0.40778 0.328765,0.32632 0.08146,-0.0815 1.68e-4,-0.29496 -0.180653,-0.47443 z m -1.418809,-0.90499 c -0.252965,-0.0662 -0.729215,-0.0686 -1.058334,-0.005 -0.329118,0.0633 -0.122147,0.11746 0.459936,0.1204 0.582084,0.003 0.851363,-0.0488 0.598398,-0.11507 z m 95.04562,6.66752 c 0.4108,-0.49498 0.14967,-1.61027 -0.42902,-1.83234 -0.5719,-0.21946 -1.68479,0.52077 -1.68479,1.12063 0,1.02489 1.449,1.51277 2.11381,0.71171 z M 35.847067,116.74173 c 0,-0.1769 -0.561071,-0.89128 -1.246824,-1.5875 l -1.246825,-1.26586 h 2.834325 c 1.713161,0 2.834324,-0.10466 2.834324,-0.26458 0,-0.15959 -1.10243,-0.26459 -2.778125,-0.26459 -1.527968,0 -2.778125,-0.0943 -2.778125,-0.20949 0,-0.11522 0.535782,-0.73532 1.190625,-1.37801 1.196867,-1.17463 1.432596,-1.5875 0.9064,-1.5875 -0.378127,0 -3.419941,2.91228 -3.419941,3.27431 0,0.32345 3.184209,3.60486 3.498086,3.60486 0.113344,0 0.20608,-0.14474 0.20608,-0.32164 z m 55.596483,-0.88656 c 1.660536,-0.85869 1.896558,-3.26056 0.440775,-4.48552 l -0.779941,-0.65628 H 76.419956 61.735528 l -0.773396,0.7734 c -1.143489,1.14349 -1.094115,2.66297 0.126185,3.88327 l 0.899584,0.89958 h 14.327097 c 12.487704,0 14.429994,-0.0532 15.128552,-0.41445 z m 53.8881,-1.22597 c 0.74216,-0.74215 0.18302,-2.06375 -0.87313,-2.06375 -1.1142,0 -1.574,1.16633 -0.77485,1.96548 0.49518,0.49517 1.20854,0.53771 1.64798,0.0983 z m 0.0501,-3.25093 c 0.4108,-0.49498 0.14967,-1.61028 -0.42902,-1.83234 -0.5719,-0.21946 -1.68479,0.52077 -1.68479,1.12062 0,1.0249 1.449,1.51277 2.11381,0.71172 z m -9.6877,-9.33358 c -1.64363,-0.26523 -2.35066,-2.628815 -1.16416,-3.891785 1.37088,-1.459232 3.97555,-0.47034 3.97555,1.50936 0,1.532225 -1.29251,2.627525 -2.81139,2.382425 z M 78.908045,100.9026 c -0.659334,-0.38403 -0.626036,-1.989615 0.04875,-2.350745 0.702159,-0.37579 23.674295,-0.37579 24.376455,0 0.35325,0.18905 0.51177,0.55496 0.51177,1.18131 0,0.626355 -0.15852,0.992255 -0.51177,1.181315 -0.69501,0.37196 -23.785482,0.36072 -24.425207,-0.0119 z"
         id="path1132"
         inkscape:connector-curvature="0" />
      <path
         sodipodi:nodetypes="cccsccsccccccccscccsscssssccssccccccccccsccssccscccscccccccccccccccccccsscscccsccccccccccccccscsccsssscsssscscccccscsssscccsccc"
         style="fill:#9a9c9b;stroke-width:0.26458332"
         d="m 72.919656,280.93817 c -0.338791,-0.2373 -0.787866,-0.84282 -0.997942,-1.34561 -0.475949,-1.1391 -0.11516,-2.45557 0.889563,-3.24588 0.664335,-0.52257 1.033021,-0.53331 18.310516,-0.53331 19.591807,0 18.460307,-0.10447 19.246457,1.77706 0.47595,1.13911 0.11516,2.45557 -0.88956,3.24589 -0.66433,0.52256 -1.03302,0.5333 -18.310515,0.5333 -15.873217,0 -17.693992,-0.043 -18.248519,-0.43145 z m 69.951364,-10.38353 c -1.87639,-1.11425 -2.60863,-2.32665 -2.73284,-4.52486 -0.0792,-1.4015 0.0129,-1.99325 0.44088,-2.83212 2.65355,-5.20137 10.23532,-3.73657 10.79726,2.08605 0.11392,1.18033 0.0172,1.63095 -0.61314,2.85511 -1.07505,2.08799 -2.48214,3.0021 -4.7947,3.11487 -1.5783,0.077 -1.92083,-2.7e-4 -3.09746,-0.69905 z m 3.04271,-2.65009 c 0,-0.31163 0.24672,-0.5624 0.65383,-0.66458 0.72815,-0.18275 1.28147,-1.00616 1.13772,-1.69307 -0.0713,-0.3408 -0.18705,-0.26356 -0.47975,0.32019 -0.50897,1.01509 -1.07037,1.33299 -1.95979,1.10976 -0.47724,-0.11978 -0.83205,-0.45382 -1.025,-0.965 -0.34281,-0.9082 -0.83184,-1.07033 -0.5625,-0.1865 0.23568,0.77338 0.89963,1.52135 1.35046,1.52135 0.19572,0 0.35587,0.23813 0.35587,0.52917 0,0.29104 0.11906,0.52917 0.26458,0.52917 0.14552,0 0.26458,-0.22522 0.26458,-0.50049 z m 0.67483,-1.97213 c 0.26209,-1.04422 0.017,-2.61417 -0.45421,-2.9092 -0.7682,-0.48101 -1.27895,0.23712 -1.27895,1.79824 0,1.5531 0.0994,1.73149 0.9651,1.73149 0.42171,0 0.6608,-0.19316 0.76806,-0.62053 z M 28.438734,113.75608 v -8.86354 h 62.70625 62.706246 v 8.86354 8.86354 H 91.144984 28.438734 Z m 23.701149,4.72005 c 1.110986,-0.50704 2.622908,-2.14626 2.986702,-3.23818 0.717106,-2.15235 0.07721,-4.52959 -1.620498,-6.02019 -3.381861,-2.96932 -8.65926,-0.99231 -9.339641,3.4988 -0.643863,4.25005 3.973258,7.5852 7.973437,5.75957 z m -4.833554,-0.37435 c -1.745813,-0.86417 -1.936387,-1.2431 -0.999622,-1.98762 0.431834,-0.34321 0.983589,-0.7959 1.226124,-1.00598 0.242535,-0.21008 0.529514,-0.30259 0.637732,-0.20557 0.108218,0.097 0.109913,0.0256 0.0038,-0.15866 -0.106146,-0.18427 -0.304052,-0.26641 -0.43979,-0.18252 -0.135738,0.0839 -0.374804,-0.18205 -0.531258,-0.59099 -0.368609,-0.96347 0.08165,-2.55515 0.881244,-3.1152 0.883962,-0.61916 2.679679,-0.52223 3.506856,0.18927 0.875274,0.75288 1.163425,2.45985 0.547065,3.24074 l -0.417677,0.52916 0.157899,-0.52916 c 0.120375,-0.40341 0.09491,-0.44055 -0.107163,-0.15629 -0.403326,0.56739 -0.115884,0.99311 1.185461,1.75574 1.165193,0.68285 1.177973,0.70519 0.70353,1.22982 -1.401942,1.55022 -4.305482,2.00135 -6.354167,0.98726 z m 5.775489,-1.84096 c -0.343543,-0.2862 -0.760262,-0.51974 -0.926041,-0.51897 -0.16578,7.6e-4 0.05577,0.23019 0.492332,0.50982 1.03112,0.66048 1.220333,0.66447 0.433709,0.009 z m -5.718375,-0.46927 c -0.08146,-0.0815 -0.294955,-1.6e-4 -0.474431,0.18066 -0.259363,0.2613 -0.228972,0.29169 0.148112,0.14811 0.260938,-0.0994 0.407782,-0.24731 0.326319,-0.32877 z m 4.798436,-3.02766 c -0.0734,-0.1819 -0.133452,-0.0331 -0.133452,0.33073 0,0.3638 0.06005,0.51263 0.133452,0.33073 0.0734,-0.1819 0.0734,-0.47956 0,-0.66146 z m -4.008867,-1.25677 0.526347,-0.66146 -0.595312,0.50403 c -0.327422,0.27722 -0.595313,0.62448 -0.595313,0.7717 0,0.14722 0.03104,0.21807 0.06896,0.15743 0.03793,-0.0606 0.305822,-0.4079 0.595313,-0.7717 z m 3.601887,0.19403 c -0.261307,-0.25936 -0.291698,-0.22897 -0.148112,0.14811 0.09936,0.26094 0.247303,0.40778 0.328765,0.32632 0.08146,-0.0815 1.68e-4,-0.29496 -0.180653,-0.47443 z m -1.418809,-0.90499 c -0.252965,-0.0662 -0.729215,-0.0686 -1.058334,-0.005 -0.329118,0.0633 -0.122147,0.11746 0.459936,0.1204 0.582084,0.003 0.851363,-0.0488 0.598398,-0.11507 z m 95.04562,6.66752 c 0.4108,-0.49498 0.14967,-1.61027 -0.42902,-1.83234 -0.5719,-0.21946 -1.68479,0.52077 -1.68479,1.12063 0,1.02489 1.449,1.51277 2.11381,0.71171 z M 35.847067,116.74173 c 0,-0.1769 -0.561071,-0.89128 -1.246824,-1.5875 l -1.246825,-1.26586 h 2.834325 c 1.713161,0 2.834324,-0.10466 2.834324,-0.26458 0,-0.15959 -1.10243,-0.26459 -2.778125,-0.26459 -1.527968,0 -2.778125,-0.0943 -2.778125,-0.20949 0,-0.11522 0.535782,-0.73532 1.190625,-1.37801 1.196867,-1.17463 1.432596,-1.5875 0.9064,-1.5875 -0.378127,0 -3.419941,2.91228 -3.419941,3.27431 0,0.32345 3.184209,3.60486 3.498086,3.60486 0.113344,0 0.20608,-0.14474 0.20608,-0.32164 z M 145.33165,114.6292 c 0.74216,-0.74215 0.18302,-2.06375 -0.87313,-2.06375 -1.1142,0 -1.574,1.16633 -0.77485,1.96548 0.49518,0.49517 1.20854,0.53771 1.64798,0.0983 z m 0.0501,-3.25093 c 0.4108,-0.49498 0.14967,-1.61028 -0.42902,-1.83234 -0.5719,-0.21946 -1.68479,0.52077 -1.68479,1.12062 0,1.0249 1.449,1.51277 2.11381,0.71172 z m -9.6877,-9.33358 c -1.64363,-0.26523 -2.35066,-2.628815 -1.16416,-3.891785 1.37088,-1.459232 3.97555,-0.47034 3.97555,1.50936 0,1.532225 -1.29251,2.627525 -2.81139,2.382425 z M 78.908045,100.9026 c -0.659334,-0.38403 -0.626036,-1.989615 0.04875,-2.350745 0.702159,-0.37579 23.674295,-0.37579 24.376455,0 0.35325,0.18905 0.51177,0.55496 0.51177,1.18131 0,0.626355 -0.15852,0.992255 -0.51177,1.181315 -0.69501,0.37196 -23.785482,0.36072 -24.425207,-0.0119 z"
         id="path1130"
         inkscape:connector-curvature="0" />
      <path
         style="fill:#5b9d95;stroke-width:0.26458332"
         d="m 143.53248,270.90796 c -2.11243,-0.9477 -3.44307,-2.96447 -3.43377,-5.20436 0.0189,-4.54155 4.88438,-7.23631 8.65321,-4.79256 3.47853,2.25552 3.50559,7.23769 0.0517,9.52335 -1.36262,0.90174 -3.82388,1.12287 -5.27116,0.47357 z m 2.38125,-2.90635 c 0,-0.22188 0.29042,-0.51383 0.64537,-0.64879 0.92997,-0.35357 1.71518,-2.12278 0.94213,-2.12278 -0.14552,0 -0.26458,0.23538 -0.26458,0.52307 0,0.28768 -0.29679,0.71752 -0.65953,0.9552 -0.9238,0.6053 -1.96182,0.29587 -2.33638,-0.69646 -0.30622,-0.81127 -0.70826,-1.05003 -0.70826,-0.42062 0,0.52564 1.03293,1.75547 1.47441,1.75547 0.20772,0 0.37768,0.23813 0.37768,0.52917 0,0.29104 0.11906,0.52917 0.26458,0.52917 0.14552,0 0.26458,-0.18154 0.26458,-0.40343 z m 0.63315,-1.86717 c 0.0883,-0.23018 0.1606,-0.92998 0.1606,-1.5551 0,-1.27773 -0.48068,-1.86557 -1.31022,-1.60229 -0.46356,0.14713 -0.54186,0.39244 -0.54186,1.69755 0,0.83907 0.0794,1.60495 0.17639,1.70196 0.33682,0.33683 1.35539,0.17406 1.51509,-0.24212 z M 28.438734,113.75608 v -8.86354 h 62.70625 62.706246 v 8.86354 8.86354 H 91.144984 28.438734 Z m 24.260023,4.48222 c 3.010168,-1.76407 3.641938,-5.86231 1.312676,-8.5152 -2.256332,-2.56982 -6.422533,-2.54152 -8.565424,0.0582 -1.594024,1.93383 -1.769276,4.60627 -0.436825,6.66121 1.711153,2.63899 4.957225,3.39708 7.689573,1.79581 z m 92.900103,-1.51787 c 0.16612,-1.37712 -1.89732,-1.61338 -2.23794,-0.25624 -0.13255,0.52812 -0.0314,0.80294 0.43426,1.18003 0.532,0.43078 0.67597,0.44609 1.16437,0.12378 0.30652,-0.20228 0.59421,-0.67369 0.63931,-1.04757 z m -109.751793,0.0213 c 0,-0.1769 -0.561071,-0.89128 -1.246824,-1.5875 l -1.246825,-1.26586 h 2.856373 c 2.16786,0 2.82964,-0.0797 2.745467,-0.33073 -0.07901,-0.23562 -0.884367,-0.33073 -2.80052,-0.33073 -1.479289,0 -2.689459,-0.008 -2.689268,-0.0188 1.91e-4,-0.0104 0.536129,-0.57798 1.190972,-1.26142 1.215732,-1.2688 1.45427,-1.76248 0.851614,-1.76248 -0.386792,0 -3.365155,2.92765 -3.365155,3.30785 0,0.30022 3.204018,3.57132 3.498086,3.57132 0.113344,0 0.20608,-0.14474 0.20608,-0.32164 z m 55.412863,-0.7301 c 0.373208,-0.14189 0.922432,-0.64791 1.220499,-1.12448 0.721444,-1.15349 0.523994,-2.43639 -0.538557,-3.4992 l -0.80667,-0.80687 -13.555003,-0.0808 c -7.455255,-0.0444 -14.080379,-0.004 -14.722502,0.0888 -1.670346,0.2427 -2.670868,1.30065 -2.663079,2.81594 0.0061,1.18398 0.483452,2.02636 1.449324,2.55752 0.688772,0.37878 28.627044,0.42511 29.615988,0.0491 z m 54.07172,-1.38243 c 0.74216,-0.74215 0.18302,-2.06375 -0.87313,-2.06375 -0.7092,0 -1.19062,0.48142 -1.19062,1.19063 0,0.7092 0.48142,1.19062 1.19062,1.19062 0.3056,0 0.6985,-0.14287 0.87313,-0.3175 z m 0.26721,-3.99419 c 0.16612,-1.37712 -1.89732,-1.61338 -2.23794,-0.25624 -0.13255,0.52812 -0.0314,0.80295 0.43426,1.18003 0.532,0.43079 0.67597,0.44609 1.16437,0.12379 0.30652,-0.20228 0.59421,-0.67369 0.63931,-1.04758 z"
         id="path1128"
         inkscape:connector-curvature="0" />
      <path
         sodipodi:nodetypes="cccscccscccccsccsscsscccsccscccscccsccsscsssccccscc"
         style="fill:#00675a;stroke-width:0.26458332"
         d="m 143.85876,271.01829 c -1.32975,-0.38375 -3.12773,-2.26702 -3.50267,-3.66882 -0.66283,-2.47813 0.17798,-4.89321 2.17538,-6.24845 3.80133,-2.57919 8.67393,-0.0379 8.67393,4.52385 0,1.73884 -0.43368,2.89075 -1.48431,3.94251 -1.53282,1.53448 -3.70762,2.07273 -5.86233,1.45091 z M 28.615673,122.44378 c -0.09732,-0.0973 -0.176939,-4.08616 -0.176939,-8.86409 v -8.68715 h 62.709817 62.709819 l -0.0697,8.79739 -0.0697,8.7974 -62.463162,0.0667 c -34.354741,0.0367 -62.542789,-0.0129 -62.640105,-0.11025 z m 23.31333,-3.67465 c 2.178137,-0.90986 3.497231,-2.91491 3.497231,-5.31585 0,-2.82733 -1.554517,-4.84696 -4.273615,-5.55228 -3.571459,-0.92643 -7.080994,1.82927 -7.097658,5.57311 -0.01778,3.9949 4.198665,6.83031 7.874042,5.29502 z m 93.208377,-0.92132 c 0.62723,-0.33568 0.6878,-1.63188 0.0991,-2.12047 -0.64159,-0.53247 -1.81644,-0.0148 -1.91679,0.84462 -0.0784,0.67116 0.51284,1.54974 1.04285,1.54974 0.14469,0 0.49337,-0.12325 0.77485,-0.27389 z M 35.847067,116.72019 c 0,-0.18875 -0.482765,-0.81382 -1.072812,-1.38906 l -1.072813,-1.04588 2.594167,-0.1323 c 2.070741,-0.10559 2.594167,-0.21236 2.594167,-0.52916 0,-0.3168 -0.523426,-0.42357 -2.594167,-0.52917 l -2.594167,-0.13229 1.072813,-1.04588 c 1.076418,-1.0494 1.365931,-1.73225 0.73444,-1.73225 -0.186105,0 -1.1054,0.77391 -2.042878,1.7198 l -1.704505,1.71979 1.704505,1.71979 c 1.651007,1.66581 2.38125,2.08797 2.38125,1.37661 z M 145.33165,114.6292 c 0.74216,-0.74215 0.18302,-2.06375 -0.87313,-2.06375 -0.7092,0 -1.19062,0.48142 -1.19062,1.19063 0,0.7092 0.48142,1.19062 1.19062,1.19062 0.3056,0 0.6985,-0.14287 0.87313,-0.3175 z m -0.19427,-2.8668 c 0.62723,-0.33569 0.6878,-1.63189 0.0991,-2.12048 -0.64159,-0.53247 -1.81644,-0.0148 -1.91679,0.84462 -0.0784,0.67117 0.51284,1.54975 1.04285,1.54975 0.14469,0 0.49337,-0.12325 0.77485,-0.27389 z"
         id="path1126"
         inkscape:connector-curvature="0" />
      <text
         id="text1152"
         y="117.48513"
         x="58.030479"
         style="font-style:normal;font-weight:normal;font-size:10.58333302px;line-height:1.25;font-family:sans-serif;letter-spacing:0px;word-spacing:0px;fill:#ffffff;fill-opacity:1;stroke:none;stroke-width:0.26458332"
         xml:space="preserve"><tspan
           style="fill:#ffffff;stroke-width:0.26458332"
           y="117.48513"
           x="58.030479"
           id="tspan1150"
           sodipodi:role="line">Stefanie</tspan></text>
      <text
         xml:space="preserve"
         style="font-style:normal;font-weight:normal;font-size:6.90779352px;line-height:1.25;font-family:sans-serif;text-align:start;letter-spacing:0px;word-spacing:0px;text-anchor:start;fill:#000000;fill-opacity:1;stroke:none;stroke-width:0.17269485"
         x="56.644989"
         y="165.13029"
         id="text1156"><tspan
           id="tspan1160"
           sodipodi:role="line"
           x="56.644989"
           y="165.13029"
           style="text-align:start;text-anchor:start;fill:#000000;stroke-width:0.17269485">Ich muss zuerst</tspan><tspan
           id="tspan1168"
           sodipodi:role="line"
           x="56.644989"
           y="173.76503"
           style="text-align:start;text-anchor:start;fill:#000000;stroke-width:0.17269485">noch Hausaufgaben</tspan><tspan
           id="tspan1164"
           sodipodi:role="line"
           x="56.644989"
           y="182.39978"
           style="text-align:start;text-anchor:start;fill:#000000;stroke-width:0.17269485">machen!</tspan></text>
      <text
         id="text1176"
         y="146.14836"
         x="49.594559"
         style="font-style:normal;font-weight:normal;font-size:6.90779352px;line-height:1.25;font-family:sans-serif;text-align:start;letter-spacing:0px;word-spacing:0px;text-anchor:start;fill:#000000;fill-opacity:1;stroke:none;stroke-width:0.17269485"
         xml:space="preserve"><tspan
           style="text-align:start;text-anchor:start;fill:#000000;stroke-width:0.17269485"
           y="146.14836"
           x="49.594559"
           sodipodi:role="line"
           id="tspan1174">Wann denn?</tspan></text>
      <text
         xml:space="preserve"
         style="font-style:normal;font-weight:normal;font-size:6.90779352px;line-height:1.25;font-family:sans-serif;text-align:start;letter-spacing:0px;word-spacing:0px;text-anchor:start;fill:#000000;fill-opacity:1;stroke:none;stroke-width:0.17269485"
         x="45.255833"
         y="201.73831"
         id="text1184"><tspan
           id="tspan1182"
           sodipodi:role="line"
           x="45.255833"
           y="201.73831"
           style="text-align:start;text-anchor:start;fill:#000000;stroke-width:0.17269485">Also eher 5?</tspan></text>
      <text
         id="text1188"
         y="218.27971"
         x="97.591736"
         style="font-style:normal;font-weight:normal;font-size:6.90779352px;line-height:1.25;font-family:sans-serif;text-align:start;letter-spacing:0px;word-spacing:0px;text-anchor:start;fill:#000000;fill-opacity:1;stroke:none;stroke-width:0.17269485"
         xml:space="preserve"><tspan
           style="text-align:start;text-anchor:start;fill:#000000;stroke-width:0.17269485"
           y="218.27971"
           x="97.591736"
           sodipodi:role="line"
           id="tspan1186">Sowas, ja!</tspan></text>
      <text
         xml:space="preserve"
         style="font-style:normal;font-weight:normal;font-size:6.90779352px;line-height:1.25;font-family:sans-serif;text-align:start;letter-spacing:0px;word-spacing:0px;text-anchor:start;fill:#000000;fill-opacity:1;stroke:none;stroke-width:0.17269485"
         x="42.544125"
         y="234.27876"
         id="text1192"><tspan
           id="tspan1190"
           sodipodi:role="line"
           x="42.544125"
           y="234.27876"
           style="text-align:start;text-anchor:start;fill:#000000;stroke-width:0.17269485">Cool, bis spter! :-)</tspan></text>
      <text
         xml:space="preserve"
         style="font-style:normal;font-weight:normal;font-size:6.90779352px;line-height:1.25;font-family:sans-serif;text-align:start;letter-spacing:0px;word-spacing:0px;text-anchor:start;fill:#000000;fill-opacity:1;stroke:none;stroke-width:0.17269485"
         x="69.932343"
         y="251.3625"
         id="text1196"><tspan
           id="tspan1194"
           sodipodi:role="line"
           x="69.932343"
           y="251.3625"
           style="text-align:start;text-anchor:start;fill:#000000;stroke-width:0.17269485">Freu mich auch!</tspan></text>
      <text
         id="text1200"
         y="127.70876"
         x="84.575546"
         style="font-style:normal;font-weight:normal;font-size:6.90779352px;line-height:1.25;font-family:sans-serif;text-align:start;letter-spacing:0px;word-spacing:0px;text-anchor:start;fill:#000000;fill-opacity:1;stroke:none;stroke-width:0.17269485"
         xml:space="preserve"><tspan
           style="text-align:start;text-anchor:start;fill:#000000;stroke-width:0.17269485"
           y="127.70876"
           x="84.575546"
           sodipodi:role="line"
           id="tspan1198">Nachher treffen?</tspan></text>
    </g>
    <rect
       y="155.44037"
       x="-96.161171"
       height="86.515808"
       width="116.91151"
       id="rect1323"
       style="opacity:1;fill:#ffffff;fill-opacity:1;stroke:#000000;stroke-width:0.26000649;stroke-linecap:round;stroke-linejoin:bevel;stroke-miterlimit:4;stroke-dasharray:none;stroke-dashoffset:0;stroke-opacity:1;paint-order:markers fill stroke" />
    <g
       transform="translate(79.368722,106.02854)"
       id="g1331">
      <rect
         ry="0"
         y="68.641708"
         x="34.471348"
         height="11.690698"
         width="35.07209"
         id="rect1325"
         style="opacity:1;fill:none;fill-opacity:1;fill-rule:nonzero;stroke:#000000;stroke-width:0.52916664;stroke-linecap:square;stroke-linejoin:miter;stroke-miterlimit:4;stroke-dasharray:none;stroke-dashoffset:0;stroke-opacity:0.98623855;paint-order:normal" />
      <text
         id="text1329"
         y="76.009354"
         x="51.641125"
         style="font-style:normal;font-variant:normal;font-weight:normal;font-stretch:normal;font-size:4.31245804px;line-height:7.1874299px;font-family:'Nimbus Sans';-inkscape-font-specification:'Nimbus Sans';text-align:center;writing-mode:lr-tb;text-anchor:middle;opacity:1;fill:none;fill-opacity:1;fill-rule:nonzero;stroke:#000000;stroke-width:0.71874297;stroke-linecap:square;stroke-linejoin:miter;stroke-miterlimit:4;stroke-dasharray:none;stroke-dashoffset:0;stroke-opacity:0.98623855;paint-order:normal"
         xml:space="preserve"><tspan
           style="fill:#000000;stroke:none;stroke-width:0.71874297"
           y="76.009354"
           x="51.641125"
           id="tspan1327"
           sodipodi:role="line">Nachricht</tspan></text>
    </g>
    <g
       id="g1339"
       transform="translate(15.86872,106.02854)">
      <rect
         style="opacity:1;fill:none;fill-opacity:1;fill-rule:nonzero;stroke:#000000;stroke-width:0.52916664;stroke-linecap:square;stroke-linejoin:miter;stroke-miterlimit:4;stroke-dasharray:none;stroke-dashoffset:0;stroke-opacity:0.98623855;paint-order:normal"
         id="rect1333"
         width="35.07209"
         height="11.690698"
         x="34.471348"
         y="68.641708"
         ry="0" />
      <text
         xml:space="preserve"
         style="font-style:normal;font-variant:normal;font-weight:normal;font-stretch:normal;font-size:4.31245804px;line-height:7.1874299px;font-family:'Nimbus Sans';-inkscape-font-specification:'Nimbus Sans';text-align:center;writing-mode:lr-tb;text-anchor:middle;opacity:1;fill:none;fill-opacity:1;fill-rule:nonzero;stroke:#000000;stroke-width:0.71874297;stroke-linecap:square;stroke-linejoin:miter;stroke-miterlimit:4;stroke-dasharray:none;stroke-dashoffset:0;stroke-opacity:0.98623855;paint-order:normal"
         x="51.641125"
         y="76.009354"
         id="text1337"><tspan
           sodipodi:role="line"
           id="tspan1335"
           x="51.641125"
           y="76.009354"
           style="fill:#000000;stroke:none;stroke-width:0.71874297">Log</tspan></text>
    </g>
    <path
       sodipodi:nodetypes="cc"
       style="opacity:1;fill:#000000;fill-opacity:1;fill-rule:nonzero;stroke:#000000;stroke-width:0.39687499;stroke-linecap:square;stroke-linejoin:miter;stroke-miterlimit:4;stroke-dasharray:none;stroke-dashoffset:0;stroke-opacity:0.98623855;paint-order:normal"
       d="M 85.907715,180.98684 H 113.5548"
       id="path1341"
       inkscape:connector-curvature="0" />
    <text
       xml:space="preserve"
       style="font-style:normal;font-variant:normal;font-weight:normal;font-stretch:normal;font-size:3.75249624px;line-height:6.2541604px;font-family:'Nimbus Sans';-inkscape-font-specification:'Nimbus Sans';text-align:center;writing-mode:lr-tb;text-anchor:middle;opacity:1;fill:#000000;fill-opacity:1;fill-rule:nonzero;stroke:none;stroke-width:0.62541604;stroke-linecap:square;stroke-linejoin:miter;stroke-miterlimit:4;stroke-dasharray:none;stroke-dashoffset:0;stroke-opacity:0.98623855;paint-order:normal"
       x="96.875587"
       y="179.49294"
       id="text1345"><tspan
         sodipodi:role="line"
         id="tspan1343"
         x="96.875587"
         y="179.49294"
         style="fill:#000000;stroke:none;stroke-width:0.62541604">anfang &gt;</tspan></text>
    <text
       id="text1349"
       y="179.49294"
       x="110.87524"
       style="font-style:normal;font-variant:normal;font-weight:normal;font-stretch:normal;font-size:3.75249624px;line-height:6.2541604px;font-family:'Nimbus Sans';-inkscape-font-specification:'Nimbus Sans';text-align:center;writing-mode:lr-tb;text-anchor:middle;opacity:1;fill:#000000;fill-opacity:1;fill-rule:nonzero;stroke:none;stroke-width:0.62541604;stroke-linecap:square;stroke-linejoin:miter;stroke-miterlimit:4;stroke-dasharray:none;stroke-dashoffset:0;stroke-opacity:0.98623855;paint-order:normal"
       xml:space="preserve"><tspan
         style="fill:#000000;stroke:none;stroke-width:0.62541604"
         y="179.49294"
         x="110.87524"
         id="tspan1347"
         sodipodi:role="line">0,1</tspan></text>
    <path
       inkscape:connector-curvature="0"
       id="path1351"
       d="m 149.28706,180.98684 h 11.11396 V 161.77443 H 134.6023 v 12.85911"
       style="opacity:1;fill:none;fill-opacity:1;fill-rule:nonzero;stroke:#000000;stroke-width:0.39687499;stroke-linecap:square;stroke-linejoin:miter;stroke-miterlimit:4;stroke-dasharray:none;stroke-dashoffset:0;stroke-opacity:0.98623855;paint-order:normal"
       sodipodi:nodetypes="ccccc" />
    <text
       id="text1355"
       y="160.02057"
       x="147.85506"
       style="font-style:normal;font-variant:normal;font-weight:normal;font-stretch:normal;font-size:3.75249624px;line-height:6.2541604px;font-family:'Nimbus Sans';-inkscape-font-specification:'Nimbus Sans';text-align:center;writing-mode:lr-tb;text-anchor:middle;opacity:1;fill:#000000;fill-opacity:1;fill-rule:nonzero;stroke:none;stroke-width:0.62541604;stroke-linecap:square;stroke-linejoin:miter;stroke-miterlimit:4;stroke-dasharray:none;stroke-dashoffset:0;stroke-opacity:0.98623855;paint-order:normal"
       xml:space="preserve"><tspan
         style="fill:#000000;stroke:none;stroke-width:0.62541604"
         y="160.02057"
         x="147.85506"
         id="tspan1353"
         sodipodi:role="line">&lt; nachfolger</tspan></text>
    <text
       xml:space="preserve"
       style="font-style:normal;font-variant:normal;font-weight:normal;font-stretch:normal;font-size:3.75249624px;line-height:6.2541604px;font-family:'Nimbus Sans';-inkscape-font-specification:'Nimbus Sans';text-align:center;writing-mode:lr-tb;text-anchor:middle;opacity:1;fill:#000000;fill-opacity:1;fill-rule:nonzero;stroke:none;stroke-width:0.62541604;stroke-linecap:square;stroke-linejoin:miter;stroke-miterlimit:4;stroke-dasharray:none;stroke-dashoffset:0;stroke-opacity:0.98623855;paint-order:normal"
       x="130.89871"
       y="172.87968"
       id="text1359"><tspan
         sodipodi:role="line"
         id="tspan1357"
         x="130.89871"
         y="172.87968"
         style="fill:#000000;stroke:none;stroke-width:0.62541604">0,1</tspan></text>
  </g>
  <g
     inkscape:groupmode="layer"
     id="layer2"
     inkscape:label="Layer 2"
     style="display:inline" />
</svg>
